<?xml version="1.0" standalone="no"?>
<!DOCTYPE svg PUBLIC "-//W3C//DTD SVG 20010904//EN"
 "http://www.w3.org/TR/2001/REC-SVG-20010904/DTD/svg10.dtd">
<svg version="1.0" xmlns="http://www.w3.org/2000/svg"
 width="252.000000pt" height="254.000000pt" viewBox="0 0 252.000000 254.000000"
 preserveAspectRatio="xMidYMid meet">

<g transform="translate(0.000000,254.000000) scale(0.100000,-0.100000)"
fill="#000000" stroke="none">
<path d="M1115 2478 c-179 -20 -374 -91 -531 -193 -116 -76 -273 -233 -349
-349 -268 -411 -268 -941 0 -1352 76 -116 233 -273 349 -349 411 -268 941
-268 1352 0 116 76 273 233 349 349 268 411 268 941 0 1352 -76 116 -233 273
-349 349 -163 106 -352 173 -548 195 -110 11 -159 11 -273 -2z m-219 -793 c14
-9 51 -92 109 -245 l88 -230 43 0 c48 0 74 -19 74 -54 0 -29 -18 -46 -51 -46
l-27 0 46 -121 46 -121 -23 -19 c-27 -22 -54 -24 -68 -6 -5 6 -31 69 -58 140
l-48 127 -163 0 -163 0 -20 -54 c-63 -169 -84 -218 -98 -223 -18 -7 -62 12
-69 32 -3 8 13 63 35 123 23 59 41 111 41 115 0 4 -13 7 -30 7 -34 0 -55 29
-44 63 9 30 22 37 74 37 l45 0 85 226 c98 259 119 290 176 249z m1075 5 c10
-6 19 -21 19 -33 -1 -13 -108 -158 -276 -372 l-275 -350 272 -3 c181 -1 277
-6 286 -13 16 -14 17 -61 1 -77 -9 -9 -100 -12 -349 -12 -312 0 -338 1 -360
18 -12 11 -20 25 -17 33 3 8 130 173 281 366 l276 353 -262 2 -262 3 -3 33
c-6 63 -12 62 335 62 198 0 322 -4 334 -10z"/>
<path d="M855 1513 c-4 -10 -20 -52 -35 -93 -16 -41 -40 -105 -54 -142 l-26
-68 124 0 124 0 -60 158 c-33 86 -61 158 -63 160 -1 2 -6 -5 -10 -15z"/>
</g>
</svg>
